<svg width="40" height="40" viewBox="0 0 40 40" fill="none" xmlns="http://www.w3.org/2000/svg">
<rect width="40" height="40" rx="20" fill="white"/>
<path d="M16.6667 18.666L20 14.666L23.3333 18.666M26 18.666L24.6667 23.9993C24.6043 24.3815 24.4368 24.7242 24.1931 24.9678C23.9495 25.2114 23.6453 25.3405 23.3333 25.3327H16.6667C16.3547 25.3405 16.0505 25.2114 15.8069 24.9678C15.5632 24.7242 15.3957 24.3815 15.3333 23.9993L14 18.666H26ZM21.3333 21.9993C21.3333 22.7357 20.7364 23.3327 20 23.3327C19.2636 23.3327 18.6667 22.7357 18.6667 21.9993C18.6667 21.263 19.2636 20.666 20 20.666C20.7364 20.666 21.3333 21.263 21.3333 21.9993Z" stroke="black" stroke-linecap="round" stroke-linejoin="round"/>
</svg>
