<svg width="42" height="42" viewBox="0 0 42 42" fill="none" xmlns="http://www.w3.org/2000/svg">
<circle cx="21" cy="21" r="21" fill="#E0DFD6" fill-opacity="0.5"/>
<path d="M22.3333 23.0007L24.3333 25.0007M24.3333 25.0007L26.3333 23.0007M24.3333 25.0007V17.0007M16.6666 16.334H19.3333C19.5174 16.334 19.6666 16.4832 19.6666 16.6673V19.334C19.6666 19.5181 19.5174 19.6673 19.3333 19.6673H16.6666C16.4826 19.6673 16.3333 19.5181 16.3333 19.334V16.6673C16.3333 16.4832 16.4826 16.334 16.6666 16.334ZM16.6666 22.334H19.3333C19.5174 22.334 19.6666 22.4832 19.6666 22.6673V25.334C19.6666 25.5181 19.5174 25.6673 19.3333 25.6673H16.6666C16.4826 25.6673 16.3333 25.5181 16.3333 25.334V22.6673C16.3333 22.4832 16.4826 22.334 16.6666 22.334Z" stroke="black" stroke-linecap="round" stroke-linejoin="round"/>
</svg>
