<svg width="76" height="76" viewBox="0 0 76 76" fill="none" xmlns="http://www.w3.org/2000/svg">
<g opacity="0.2">
<path d="M47.5003 25.3307H47.532M12.667 47.4972L25.3337 34.8306C26.7778 33.4409 28.4161 32.7093 30.0837 32.7093C31.7513 32.7093 33.3895 33.4409 34.8337 34.8306L50.667 50.6639M44.3337 44.3306L47.5003 41.1639C48.9445 39.7742 50.5827 39.0426 52.2503 39.0426C53.9179 39.0426 55.5561 39.7742 57.0003 41.1639L63.3337 47.4972M22.167 12.6641H53.8337C59.0804 12.6641 63.3337 16.9174 63.3337 22.1641V53.8307C63.3337 59.0774 59.0804 63.3307 53.8337 63.3307H22.167C16.9203 63.3307 12.667 59.0774 12.667 53.8307V22.1641C12.667 16.9174 16.9203 12.6641 22.167 12.6641Z" stroke="black" stroke-linecap="round" stroke-linejoin="round"/>
</g>
</svg>
