<svg width="150" height="62" viewBox="0 0 150 62" fill="none" xmlns="http://www.w3.org/2000/svg">
<mask id="mask0_164_1554" style="mask-type:alpha" maskUnits="userSpaceOnUse" x="0" y="0" width="150" height="62">
<rect width="150" height="62" fill="#D9D9D9"/>
</mask>
<g mask="url(#mask0_164_1554)">
<path d="M81.3025 52.44C79.1425 52.44 77.1425 52.08 75.3025 51.36C73.4892 50.6133 71.8892 49.5733 70.5025 48.24C69.1425 46.9067 68.0758 45.36 67.3025 43.6C66.5558 41.8133 66.1825 39.88 66.1825 37.8C66.1825 35.6933 66.5692 33.76 67.3425 32C68.1425 30.2133 69.2492 28.6667 70.6625 27.36C72.0758 26.0267 73.7158 25 75.5825 24.28C77.4758 23.5333 79.4892 23.16 81.6225 23.16C84.1558 23.16 86.4492 23.6133 88.5025 24.52C90.5558 25.4 92.2225 26.6267 93.5025 28.2L88.7025 33C87.7425 31.8533 86.6892 31 85.5425 30.44C84.3958 29.8533 83.0625 29.56 81.5425 29.56C79.9958 29.56 78.6092 29.9067 77.3825 30.6C76.1825 31.2667 75.2225 32.2133 74.5025 33.44C73.7825 34.6667 73.4225 36.1067 73.4225 37.76C73.4225 39.4133 73.7558 40.8667 74.4225 42.12C75.1158 43.3733 76.0492 44.3467 77.2225 45.04C78.4225 45.7333 79.7958 46.08 81.3425 46.08C82.8892 46.08 84.1958 45.7867 85.2625 45.2C86.3558 44.6133 87.1825 43.76 87.7425 42.64C88.3292 41.52 88.6225 40.1867 88.6225 38.64L93.4625 41.76L80.5425 41.44V35.6H95.8225V36.68C95.8225 40.0667 95.2092 42.9333 93.9825 45.28C92.7558 47.6267 91.0492 49.4133 88.8625 50.64C86.7025 51.84 84.1825 52.44 81.3025 52.44ZM98.7431 52V32.44H105.703V52H98.7431ZM105.703 41.36L102.583 38.72C103.356 36.5067 104.383 34.84 105.663 33.72C106.943 32.6 108.61 32.04 110.663 32.04C111.596 32.04 112.396 32.16 113.063 32.4C113.756 32.64 114.343 33.0133 114.823 33.52L110.783 38.92C110.57 38.68 110.263 38.4933 109.863 38.36C109.49 38.2 109.063 38.12 108.583 38.12C107.676 38.12 106.97 38.4 106.463 38.96C105.956 39.4933 105.703 40.2933 105.703 41.36ZM115.97 52V32.44H122.93V52H115.97ZM128.25 52V40.68C128.25 39.8533 127.996 39.2133 127.49 38.76C126.983 38.28 126.356 38.04 125.61 38.04C125.076 38.04 124.61 38.1467 124.21 38.36C123.81 38.5733 123.49 38.88 123.25 39.28C123.036 39.6533 122.93 40.12 122.93 40.68L120.21 39.6C120.21 38.0267 120.556 36.68 121.25 35.56C121.943 34.44 122.876 33.5733 124.05 32.96C125.223 32.3467 126.556 32.04 128.05 32.04C129.383 32.04 130.583 32.36 131.65 33C132.743 33.6133 133.61 34.48 134.25 35.6C134.89 36.72 135.21 38.04 135.21 39.56V52H128.25ZM140.53 52V40.68C140.53 39.8533 140.276 39.2133 139.77 38.76C139.263 38.28 138.636 38.04 137.89 38.04C137.383 38.04 136.916 38.1467 136.49 38.36C136.09 38.5733 135.77 38.88 135.53 39.28C135.316 39.6533 135.21 40.12 135.21 40.68L131.13 40.48C131.183 38.72 131.57 37.2133 132.29 35.96C133.01 34.7067 133.996 33.7467 135.25 33.08C136.53 32.3867 137.97 32.04 139.57 32.04C141.09 32.04 142.45 32.36 143.65 33C144.85 33.64 145.783 34.5733 146.45 35.8C147.143 37 147.49 38.44 147.49 40.12V52H140.53Z" fill="black"/>
<path d="M28.5 2.59808L20.1557 33.1912C18.4997 39.2624 26.2973 43.2972 30.2969 38.4388V38.4388C34.3052 33.5699 28.817 26.6842 23.1767 29.5056L20.9952 30.5968L31.6782 24.464C40.908 19.1655 52.4526 25.6309 52.7573 36.2691V36.2691C52.9845 44.198 46.6187 50.7488 38.6864 50.7488L4.72724 50.7488" stroke="#282828" stroke-width="7"/>
</g>
</svg>
